<svg width="44" height="44" viewBox="0 0 44 44" fill="none" xmlns="http://www.w3.org/2000/svg">
<path fill-rule="evenodd" clip-rule="evenodd" d="M44 22C44 34.1503 34.1503 44 22 44C9.84974 44 0 34.1503 0 22C0 9.84974 9.84974 0 22 0C34.1503 0 44 9.84974 44 22ZM42.68 22C42.68 33.4212 33.4212 42.68 22 42.68C10.5787 42.68 1.31999 33.4212 1.31999 22C1.31999 10.5787 10.5787 1.31997 22 1.31997C33.4212 1.31997 42.68 10.5787 42.68 22ZM19.7249 9.11622L12.1451 13.4943C12.1627 13.5441 12.179 13.5946 12.1941 13.6456L17.5476 13.7026L20.0365 9.4131C19.9259 9.32146 19.8218 9.22223 19.7249 9.11622ZM19.064 7.97359L11.4479 12.3726C10.8883 11.7973 10.1059 11.44 9.23999 11.44C7.53896 11.44 6.15999 12.819 6.15999 14.52C6.15999 15.9945 7.19612 17.227 8.58 17.5291V26.4709C7.19612 26.773 6.15999 28.0055 6.15999 29.48C6.15999 31.181 7.53896 32.56 9.23999 32.56C10.2453 32.56 11.1381 32.0784 11.7003 31.3332L19.2037 35.6671C19.0216 36.0602 18.92 36.4982 18.92 36.96C18.92 38.661 20.299 40.04 22 40.04C23.701 40.04 25.08 38.661 25.08 36.96C25.08 36.4982 24.9784 36.0602 24.7963 35.6671L32.2997 31.3332C32.8619 32.0783 33.7547 32.56 34.76 32.56C36.461 32.56 37.84 31.181 37.84 29.48C37.84 28.0055 36.8039 26.773 35.42 26.4709V17.5291C36.8039 17.227 37.84 15.9945 37.84 14.52C37.84 12.819 36.461 11.44 34.76 11.44C33.8941 11.44 33.1117 11.7973 32.5521 12.3726L24.936 7.97359C25.0295 7.67912 25.08 7.36546 25.08 7.04001C25.08 5.33897 23.701 3.96001 22 3.96001C20.299 3.96001 18.92 5.33897 18.92 7.04001C18.92 7.36546 18.9705 7.67912 19.064 7.97359ZM24.2751 9.11622C24.1962 9.20252 24.1126 9.28433 24.0245 9.36121L26.576 13.7986L31.7523 13.8537C31.7793 13.731 31.8137 13.611 31.8549 13.4943L24.2751 9.11622ZM22.867 9.99629C22.799 10.0162 22.7299 10.0339 22.66 10.0491V13.757L25.044 13.7823L22.867 9.99629ZM21.2115 10.0182C21.254 10.0294 21.2968 10.0397 21.34 10.0491V13.7429L19.0643 13.7187L21.2115 10.0182ZM31.7482 30.1274L23.9895 34.6087L23.9677 34.5904L26.7353 29.92H31.7112C31.7212 29.9899 31.7336 30.0591 31.7482 30.1274ZM25.2009 29.92L22.7932 33.9831C22.7492 33.9714 22.7048 33.9607 22.66 33.9509V29.92H25.2009ZM21.34 29.92V33.9509C21.2971 33.9602 21.2545 33.9705 21.2123 33.9817L18.8634 29.92H21.34ZM17.3385 29.92L20.0371 34.5864L20.0105 34.6087L12.2518 30.1274C12.2665 30.0591 12.2788 29.9899 12.2888 29.92H17.3385ZM34.0806 17.5248L34.1 17.5291V26.4709C34.0301 26.4862 33.961 26.5038 33.893 26.5237L31.3592 22.1171L34.0806 17.5248ZM32.8807 16.9604C32.6998 16.8209 32.5348 16.6616 32.389 16.486L29.1991 18.3604L30.6036 20.803L32.8807 16.9604ZM31.7495 15.1737C31.7595 15.22 31.7706 15.2658 31.7826 15.3113L28.5411 17.2161L27.3398 15.1268L31.7495 15.1737ZM32.6552 27.2314C32.6815 27.2068 32.7083 27.1825 32.7355 27.1588L30.5864 23.4212L29.4399 25.3559L32.6552 27.2314ZM31.8076 28.6C31.8357 28.5053 31.8683 28.4126 31.9051 28.3221L28.767 26.4915L27.5175 28.6H31.8076ZM9.9 26.4709C9.97024 26.4862 10.0396 26.504 10.108 26.524L12.7457 21.9782L10.137 17.4673C10.0592 17.491 9.98021 17.5116 9.9 17.5291V26.4709ZM11.2653 27.1595C11.3124 27.2006 11.3582 27.2432 11.4027 27.2871L14.6965 25.3515L13.5074 23.2954L11.2653 27.1595ZM12.1924 28.6C12.1718 28.5305 12.1487 28.462 12.1233 28.3947L15.3574 26.4942L16.5751 28.6H12.1924ZM13.5094 20.662L11.2878 16.8206C11.4042 16.717 11.5127 16.6046 11.6122 16.4845L14.8406 18.3678L13.5094 20.662ZM12.2878 14.9667C12.2709 15.0833 12.2474 15.1977 12.2178 15.3096L15.5031 17.226L16.7863 15.0145L12.2878 14.9667ZM18.303 15.0307L16.6433 17.8911L21.34 20.6309V15.063L18.303 15.0307ZM22.66 15.077V20.672L27.403 17.8849L25.8077 15.1105L22.66 15.077ZM28.061 19.0292L23.345 21.8005L28.2997 24.6908L29.8308 22.1071L28.061 19.0292ZM21.34 22.9787L16.4954 25.8255L18.1 28.6H21.34V22.9787ZM22.66 28.6V22.9291L27.6268 25.8264L25.9832 28.6H22.66ZM15.9808 19.0329L14.2711 21.9793L15.8346 24.6828L20.7324 21.8047L15.9808 19.0329ZM9.23999 16.28C10.212 16.28 11 15.492 11 14.52C11 13.548 10.212 12.76 9.23999 12.76C8.26797 12.76 7.47999 13.548 7.47999 14.52C7.47999 15.492 8.26797 16.28 9.23999 16.28ZM11 29.48C11 30.452 10.212 31.24 9.23999 31.24C8.26797 31.24 7.47999 30.452 7.47999 29.48C7.47999 28.508 8.26797 27.72 9.23999 27.72C10.212 27.72 11 28.508 11 29.48ZM34.76 31.24C35.732 31.24 36.52 30.452 36.52 29.48C36.52 28.508 35.732 27.72 34.76 27.72C33.788 27.72 33 28.508 33 29.48C33 30.452 33.788 31.24 34.76 31.24ZM36.52 14.52C36.52 15.492 35.732 16.28 34.76 16.28C33.788 16.28 33 15.492 33 14.52C33 13.548 33.788 12.76 34.76 12.76C35.732 12.76 36.52 13.548 36.52 14.52ZM22 38.72C22.972 38.72 23.76 37.932 23.76 36.96C23.76 35.988 22.972 35.2 22 35.2C21.028 35.2 20.24 35.988 20.24 36.96C20.24 37.932 21.028 38.72 22 38.72ZM23.76 7.04001C23.76 8.01203 22.972 8.80001 22 8.80001C21.028 8.80001 20.24 8.01203 20.24 7.04001C20.24 6.06799 21.028 5.28001 22 5.28001C22.972 5.28001 23.76 6.06799 23.76 7.04001Z" fill="#FF3445"/>
</svg>
