<?xml version="1.0" encoding="UTF-8"?>
<svg width="44px" height="44px" viewBox="0 0 44 44" version="1.1" xmlns="http://www.w3.org/2000/svg" xmlns:xlink="http://www.w3.org/1999/xlink">
    <!-- Generator: Sketch 61 (89581) - https://sketch.com -->
    <title>icon_ig</title>
    <desc>Created with Sketch.</desc>
    <g id="Page-1" stroke="none" stroke-width="1" fill="none" fill-rule="evenodd">
        <g id="Why-community?-FIRE" transform="translate(-780.000000, -1182.000000)">
            <g id="Group-7" transform="translate(723.000000, 1183.000000)">
                <g id="icon_ig" transform="translate(58.000000, 0.000000)">
                    <g id="flaticon1575781722-svg" transform="translate(21.000000, 21.000000) scale(-1, 1) translate(-21.000000, -21.000000) translate(11.000000, 11.000000)" fill="#FF3445" fill-rule="nonzero">
                        <path d="M14.5960547,0 L5.40394531,0 C2.42421875,0 0,2.42421875 0,5.40394531 L0,14.5960547 C0,17.5757812 2.42421875,20 5.40394531,20 L14.5960547,20 C17.5757812,20 20,17.5757812 20,14.5960547 L20,5.40394531 C20,2.42421875 17.5757812,0 14.5960547,0 Z M18.3842188,14.5960547 C18.3842188,16.6848438 16.6848828,18.3842188 14.5960547,18.3842188 L5.40394531,18.3842188 C3.31515625,18.3842188 1.61578125,16.6848828 1.61578125,14.5960547 L1.61578125,5.40394531 C1.61578125,3.31515625 3.31511719,1.61578125 5.40394531,1.61578125 L14.5960547,1.61578125 C16.6848437,1.61578125 18.3842188,3.31511719 18.3842188,5.40394531 L18.3842188,14.5960547 L18.3842188,14.5960547 Z" id="Shape"></path>
                        <path d="M13.9504109,9.83956276 C13.8077695,8.87753369 13.3689122,8.00560545 12.6812945,7.31791554 C11.9936769,6.63026484 11.1218403,6.19132217 10.1599516,6.048705 C9.72199556,5.983765 9.27796552,5.983765 8.84004867,6.048705 C7.6512661,6.2250267 6.6023426,6.85373368 5.88643183,7.81905481 C5.17052107,8.78437595 4.87328624,9.97077526 5.0495894,11.1596044 C5.22589257,12.3484728 5.85453346,13.3975066 6.81975312,14.1135318 C7.60334016,14.6947781 8.53246842,15 9.49047764,15 C9.71255145,15 9.93623192,14.983618 10.1599124,14.950423 C11.348695,14.7741013 12.3976185,14.1453943 13.1135292,13.1800732 C13.8294792,12.2147912 14.126714,11.0284311 13.9504109,9.83956276 Z M9.92216372,13.3468322 C9.16173631,13.4597816 8.40287639,13.2695077 7.78540385,12.8114789 C7.1679313,12.3534501 6.76579236,11.6823381 6.65305082,10.9218308 C6.54027009,10.1613234 6.73036715,9.4023837 7.18834783,8.78484624 C7.6463677,8.16730879 8.31736994,7.76512757 9.07783654,7.65233499 C9.21789155,7.63156359 9.35892625,7.62117789 9.49996094,7.62117789 C9.64099564,7.62117789 9.78206952,7.63156359 9.92212453,7.65237418 C11.1851668,7.83966944 12.1596347,8.81420054 12.3469494,10.0774148 C12.5797213,11.6473403 11.4920025,13.1140358 9.92216372,13.3468322 Z" id="Shape"></path>
                        <path d="M15.7071025,4.29289755 C15.5208625,4.10670599 15.2631146,4 15,4 C14.7368854,4 14.4791375,4.10665764 14.2928975,4.29289755 C14.106706,4.47913746 14,4.73645022 14,5 C14,5.26354978 14.106706,5.52086254 14.2928975,5.70710245 C14.4791375,5.89329401 14.7368854,6 15,6 C15.2631146,6 15.5208625,5.89334236 15.7071025,5.70710245 C15.893294,5.52086254 16,5.26311464 16,5 C16,4.73683702 15.893294,4.47908911 15.7071025,4.29289755 Z" id="Path"></path>
                    </g>
                    <rect id="Rectangle-Copy-4" stroke="#FF374B" x="0" y="0" width="42" height="42" rx="21"></rect>
                </g>
            </g>
        </g>
    </g>
</svg>