<?xml version="1.0" encoding="UTF-8"?>
<svg width="44px" height="44px" viewBox="0 0 44 44" version="1.1" xmlns="http://www.w3.org/2000/svg" xmlns:xlink="http://www.w3.org/1999/xlink">
    <!-- Generator: Sketch 61 (89581) - https://sketch.com -->
    <title>icon_fb</title>
    <desc>Created with Sketch.</desc>
    <g id="Page-1" stroke="none" stroke-width="1" fill="none" fill-rule="evenodd">
        <g id="Why-community?-FIRE" transform="translate(-722.000000, -1182.000000)">
            <g id="Group-7" transform="translate(723.000000, 1183.000000)">
                <g id="icon_fb">
                    <g id="flaticon1575781606-svg" transform="translate(15.000000, 8.000000)" fill="#FF3F50" fill-rule="nonzero">
                        <path d="M8.50680143,25 L3.02167361,25 L3.02167361,13.7909756 L0,13.7909756 L0,8.64317094 L3.02158537,8.64317094 L3.02158537,5.75250726 C3.02158537,3.09872222 4.71442147,0 9.48734744,0 C11.1699475,0 12.4051601,0.154659161 12.4567817,0.161323266 L12.9632031,0.225887191 L12.8412525,5.04334265 L12.2832096,5.03832293 C12.2820624,5.03832293 11.0281424,5.02663911 9.66030192,5.02663911 C8.64234127,5.02663911 8.50733088,5.2730379 8.50733088,6.25309405 L8.50733088,8.64429605 L13,8.64429605 L12.7510691,13.7921007 L8.50786033,13.7921007 L8.50786033,25 L8.50680143,25 Z M4.1552314,23.8875272 L7.37192001,23.8875272 L7.37192001,12.6791086 L11.6672798,12.6791086 L11.8090849,9.75564372 L7.37192001,9.75564372 L7.37192001,6.25196894 C7.37192001,5.0950111 7.64352914,3.91304122 9.65906653,3.91304122 C10.4689524,3.91304122 11.2385116,3.91693583 11.7335496,3.92083043 L11.802202,1.21260745 C11.3014282,1.16864167 10.4683347,1.11247278 9.48611205,1.11247278 C5.55545675,1.11247278 4.1546137,3.50921377 4.1546137,5.75250726 L4.1546137,9.75564372 L1.13311657,9.75564372 L1.13311657,12.6791086 L4.15470195,12.6791086 L4.15470195,23.8875272 L4.1552314,23.8875272 Z" id="Shape"></path>
                    </g>
                    <rect id="Rectangle-Copy-4" stroke="#FF374B" x="0" y="0" width="42" height="42" rx="21"></rect>
                </g>
            </g>
        </g>
    </g>
</svg>