<?xml version="1.0" encoding="UTF-8"?>
<svg width="44px" height="44px" viewBox="0 0 44 44" version="1.1" xmlns="http://www.w3.org/2000/svg" xmlns:xlink="http://www.w3.org/1999/xlink">
    <!-- Generator: Sketch 61 (89581) - https://sketch.com -->
    <title>icon_email</title>
    <desc>Created with Sketch.</desc>
    <g id="Page-1" stroke="none" stroke-width="1" fill="none" fill-rule="evenodd">
        <g id="Why-community?-FIRE" transform="translate(-838.000000, -1182.000000)">
            <g id="Group-7" transform="translate(723.000000, 1183.000000)">
                <g id="icon_email" transform="translate(116.000000, 0.000000)">
                    <rect id="Rectangle-Copy-5" stroke="#FF374B" x="0" y="0" width="42" height="42" rx="21"></rect>
                    <path d="M20.4,29.424 C21.056,29.424 21.68,29.356 22.272,29.22 C22.864,29.084 23.4,28.916 23.88,28.716 C24.36,28.516 24.772,28.308 25.116,28.092 C25.46,27.876 25.712,27.696 25.872,27.552 L25.872,27.552 L25.872,26.352 C25.696,26.512 25.448,26.704 25.128,26.928 C24.808,27.152 24.424,27.364 23.976,27.564 C23.528,27.764 23.024,27.932 22.464,28.068 C21.904,28.204 21.296,28.272 20.64,28.272 C19.872,28.272 19.14,28.168 18.444,27.96 C17.748,27.752 17.136,27.42 16.608,26.964 C16.08,26.508 15.66,25.928 15.348,25.224 C15.036,24.52 14.88,23.672 14.88,22.68 C14.88,21.752 15.028,20.832 15.324,19.92 C15.62,19.008 16.056,18.184 16.632,17.448 C17.208,16.712 17.928,16.116 18.792,15.66 C19.656,15.204 20.656,14.976 21.792,14.976 C22.704,14.976 23.48,15.12 24.12,15.408 C24.76,15.696 25.284,16.072 25.692,16.536 C26.1,17 26.4,17.524 26.592,18.108 C26.784,18.692 26.88,19.28 26.88,19.872 C26.88,20.416 26.812,20.952 26.676,21.48 C26.54,22.008 26.348,22.476 26.1,22.884 C25.852,23.292 25.556,23.62 25.212,23.868 C24.868,24.116 24.488,24.24 24.072,24.24 C23.8,24.24 23.616,24.184 23.52,24.072 C23.424,23.96 23.376,23.792 23.376,23.568 C23.376,23.456 23.384,23.332 23.4,23.196 C23.416,23.06 23.44,22.904 23.472,22.728 L23.472,22.728 L24.36,18.456 C24.088,18.184 23.724,17.984 23.268,17.856 C22.812,17.728 22.392,17.664 22.008,17.664 C21.464,17.664 20.92,17.776 20.376,18 C19.832,18.224 19.34,18.54 18.9,18.948 C18.46,19.356 18.104,19.848 17.832,20.424 C17.56,21 17.424,21.648 17.424,22.368 C17.424,22.848 17.484,23.268 17.604,23.628 C17.724,23.988 17.88,24.288 18.072,24.528 C18.264,24.768 18.48,24.948 18.72,25.068 C18.96,25.188 19.2,25.248 19.44,25.248 C19.856,25.248 20.268,25.088 20.676,24.768 C21.084,24.448 21.424,24.016 21.696,23.472 C21.696,23.728 21.716,23.964 21.756,24.18 C21.796,24.396 21.876,24.58 21.996,24.732 C22.116,24.884 22.292,25.004 22.524,25.092 C22.756,25.18 23.064,25.224 23.448,25.224 C24.184,25.224 24.852,25.072 25.452,24.768 C26.052,24.464 26.568,24.06 27,23.556 C27.432,23.052 27.764,22.472 27.996,21.816 C28.228,21.16 28.344,20.48 28.344,19.776 C28.344,19.056 28.216,18.344 27.96,17.64 C27.704,16.936 27.308,16.304 26.772,15.744 C26.236,15.184 25.556,14.728 24.732,14.376 C23.908,14.024 22.936,13.848 21.816,13.848 C20.344,13.848 19.076,14.136 18.012,14.712 C16.948,15.288 16.072,16.016 15.384,16.896 C14.696,17.776 14.188,18.732 13.86,19.764 C13.532,20.796 13.368,21.768 13.368,22.68 C13.368,23.704 13.556,24.632 13.932,25.464 C14.308,26.296 14.816,27.004 15.456,27.588 C16.096,28.172 16.84,28.624 17.688,28.944 C18.536,29.264 19.44,29.424 20.4,29.424 Z M19.776,24.216 C19.552,24.216 19.368,24.092 19.224,23.844 C19.08,23.596 19.008,23.208 19.008,22.68 C19.008,22.28 19.064,21.832 19.176,21.336 C19.288,20.84 19.464,20.38 19.704,19.956 C19.944,19.532 20.252,19.176 20.628,18.888 C21.004,18.6 21.456,18.456 21.984,18.456 C22.288,18.456 22.488,18.504 22.584,18.6 L22.584,18.6 L22.008,21.504 C21.944,21.808 21.828,22.12 21.66,22.44 C21.492,22.76 21.304,23.052 21.096,23.316 C20.888,23.58 20.668,23.796 20.436,23.964 C20.204,24.132 19.984,24.216 19.776,24.216 Z" id="@" fill="#FF374B" fill-rule="nonzero"></path>
                </g>
            </g>
        </g>
    </g>
</svg>