<?xml version="1.0" encoding="UTF-8"?>
<svg width="140px" height="35px" viewBox="0 0 140 35" version="1.1" xmlns="http://www.w3.org/2000/svg" xmlns:xlink="http://www.w3.org/1999/xlink">
    <!-- Generator: Sketch 61 (89581) - https://sketch.com -->
    <title>terran_collective_logo_red</title>
    <desc>Created with Sketch.</desc>
    <defs>
        <linearGradient x1="50%" y1="45.8755059%" x2="63.0162455%" y2="51.7244941%" id="linearGradient-1">
            <stop stop-color="#000000" stop-opacity="0" offset="0%"></stop>
            <stop stop-color="#000000" stop-opacity="0.364319274" offset="100%"></stop>
        </linearGradient>
        <linearGradient x1="41.2378488%" y1="62.4358081%" x2="61.6247708%" y2="35.4449803%" id="linearGradient-2">
            <stop stop-color="#000000" stop-opacity="0" offset="0%"></stop>
            <stop stop-color="#000000" stop-opacity="0.588505245" offset="100%"></stop>
        </linearGradient>
        <linearGradient x1="44.3108184%" y1="48.252145%" x2="54.0614336%" y2="52.9920004%" id="linearGradient-3">
            <stop stop-color="#000000" stop-opacity="0" offset="0%"></stop>
            <stop stop-color="#000000" stop-opacity="0.490985577" offset="100%"></stop>
        </linearGradient>
        <linearGradient x1="48.3291051%" y1="36.1670918%" x2="58.1202562%" y2="26.073701%" id="linearGradient-4">
            <stop stop-color="#000000" stop-opacity="0" offset="0%"></stop>
            <stop stop-color="#000000" stop-opacity="0.752622378" offset="100%"></stop>
        </linearGradient>
        <linearGradient x1="51.2402925%" y1="33.3071388%" x2="47.867207%" y2="38.7320914%" id="linearGradient-5">
            <stop stop-color="#000000" stop-opacity="0" offset="0%"></stop>
            <stop stop-color="#000000" stop-opacity="0.348011364" offset="100%"></stop>
        </linearGradient>
        <linearGradient x1="50%" y1="0%" x2="50%" y2="100%" id="linearGradient-6">
            <stop stop-color="#000000" stop-opacity="0" offset="0%"></stop>
            <stop stop-color="#000000" stop-opacity="0.219654696" offset="49.1487536%"></stop>
            <stop stop-color="#000000" stop-opacity="0.952162591" offset="100%"></stop>
        </linearGradient>
        <linearGradient x1="50%" y1="0%" x2="50%" y2="100%" id="linearGradient-7">
            <stop stop-color="#000000" stop-opacity="0" offset="0%"></stop>
            <stop stop-color="#000000" stop-opacity="0.219654696" offset="69.6147941%"></stop>
            <stop stop-color="#000000" stop-opacity="0.690698596" offset="100%"></stop>
        </linearGradient>
    </defs>
    <g id="Page-1" stroke="none" stroke-width="1" fill="none" fill-rule="evenodd">
        <g id="Why-community?-FIRE" transform="translate(-32.000000, -25.000000)">
            <g id="terran_collective_logo_red" transform="translate(24.000000, 17.000000)">
                <g id="Group-3-Copy" opacity="0.900000036" fill-rule="nonzero">
                    <g id="Group">
                        <g id="Group-10-Copy-2" style="mix-blend-mode: screen;">
                            <g id="Group-3-Copy-3" transform="translate(25.981129, 25.416445) rotate(-315.000000) translate(-25.981129, -25.416445) translate(8.481129, 7.416445)" fill="#FF374B">
                                <path d="M17.3068456,0.845906229 C26.8651526,0.845906229 34.6136913,8.63825202 34.6136913,18.2505977 C34.6136913,27.8629434 26.8651526,35.6552891 17.3068456,35.6552891 C7.74853873,35.6552891 5.68434189e-14,27.8629434 5.68434189e-14,18.2505977 C5.68434189e-14,8.63825202 7.74853873,0.845906229 17.3068456,0.845906229 Z M17.3068456,4.67493835 C9.85136625,4.67493835 3.80750604,10.7529681 3.80750604,18.2505977 C3.80750604,25.7482273 9.85136625,31.826257 17.3068456,31.826257 C24.762325,31.826257 30.8061852,25.7482273 30.8061852,18.2505977 C30.8061852,10.7529681 24.762325,4.67493835 17.3068456,4.67493835 Z" id="Combined-Shape"></path>
                                <g id="Group-2" transform="translate(17.466196, 18.155289) rotate(-180.000000) translate(-17.466196, -18.155289) translate(8.466196, 0.655289)">
                                    <path d="M9.15991573,0 C13.7329223,0 17.4400765,3.72811299 17.4400765,8.32697343 C17.4400765,10.6601472 15.8416461,13.4206618 12.6447851,16.6085172 C11.9754691,17.2759478 10.8143084,18.4405816 9.16130306,20.1024186 C7.50592839,18.440115 6.34350602,17.2751453 5.67403595,16.6075096 C2.47784861,13.4200801 0.879754937,10.6599014 0.879754937,8.32697343 C0.879754937,3.72811299 4.5869092,0 9.15991573,0 Z M9.15934989,3.83251306 C6.68566006,3.83251306 4.68033824,5.84917215 4.68033824,8.33684721 C4.68033824,9.58091501 5.5204639,11.0466696 7.20071522,12.7341109 C7.57382795,13.1088203 8.22670618,13.7642538 9.15934989,14.7004115 C10.0900126,13.7660337 10.7416169,13.1118791 11.1141628,12.7379479 C12.796962,11.0488914 13.6383615,9.58185786 13.6383615,8.33684721 C13.6383615,5.84917215 11.6330397,3.83251306 9.15934989,3.83251306 Z" id="Combined-Shape"></path>
                                    <g id="Group-5" transform="translate(8.942406, 24.302830) rotate(-180.000000) translate(-8.942406, -24.302830) translate(0.442406, 13.802830)">
                                        <path d="M8.28016079,0 C12.8531673,0 16.5603216,3.72811299 16.5603216,8.32697343 C16.5603216,10.6601472 14.9618911,13.4206618 11.7650302,16.6085172 C11.0957141,17.2759478 9.93455343,18.4405816 8.28154812,20.1024186 C6.62617346,18.440115 5.46375109,17.2751453 4.79428101,16.6075096 C1.59809367,13.4200801 0,10.6599014 0,8.32697343 C0,3.72811299 3.70715426,0 8.28016079,0 Z M8.27959496,3.83251306 C5.80590513,3.83251306 3.8005833,5.84917215 3.8005833,8.33684721 C3.8005833,9.58091501 4.64070896,11.0466696 6.32096028,12.7341109 C6.69407302,13.1088203 7.34695124,13.7642538 8.27959496,14.7004115 C9.21025766,13.7660337 9.86186197,13.1118791 10.2344079,12.7379479 C11.917207,11.0488914 12.7586066,9.58185786 12.7586066,8.33684721 C12.7586066,5.84917215 10.7532848,3.83251306 8.27959496,3.83251306 Z" id="Combined-Shape"></path>
                                    </g>
                                </g>
                            </g>
                            <g id="Group-8" transform="translate(20.676433, 8.051699)">
                                <path d="M2.42603882,0.189528768 L0.00317815825,4.78731068 C0.629278702,4.55031613 1.11628206,4.38529169 1.46418822,4.29223737 C1.81209439,4.19918304 2.34276406,4.09201088 3.05619724,3.97072088 C3.9012853,3.88004315 4.53787071,3.83493234 4.96595345,3.83538845 C5.39403619,3.83584456 6.03105151,3.88231235 6.87699943,3.97479181 C8.51263613,2.96387253 10.2413921,2.53879007 12.0632674,2.69954444 C13.8851427,2.86029882 15.5049461,3.58084363 16.9226776,4.86117889 C15.0276094,3.01052055 12.8160702,1.67163756 10.28806,0.844529916 C7.76004966,0.0174222734 5.13937595,-0.200911442 2.42603882,0.189528768 Z" id="Path-9" fill="url(#linearGradient-1)"></path>
                                <path d="M14.5159807,7.8536348 C15.6144982,9.10761829 16.0004414,10.4906554 15.6738101,12.0027462 C15.3335213,13.5780622 14.365134,14.6267246 12.7686483,15.1487334 L13.2356486,18.8544112 C14.4778702,18.5580786 15.4700677,18.1629736 16.212241,17.6690963 C17.0198558,17.1316711 17.7165358,16.4029169 18.3022809,15.4828339 C18.1180141,14.0831814 17.6957619,12.718183 17.0355245,11.3878387 C16.3752871,10.0574944 15.5354391,8.8794264 14.5159807,7.8536348 Z" id="Path-10" fill="url(#linearGradient-2)"></path>
                            </g>
                            <g id="Group-8" transform="translate(21.129624, 33.369374) rotate(-180.000000) translate(-21.129624, -33.369374) translate(11.629624, 23.869374)">
                                <path d="M2.42603882,0.189528768 L0.00317815825,4.78731068 C0.629278702,4.55031613 1.11628206,4.38529169 1.46418822,4.29223737 C1.81209439,4.19918304 2.34276406,4.09201088 3.05619724,3.97072088 C3.9012853,3.88004315 4.53787071,3.83493234 4.96595345,3.83538845 C5.39403619,3.83584456 6.03105151,3.88231235 6.87699943,3.97479181 C8.51263613,2.96387253 10.2413921,2.53879007 12.0632674,2.69954444 C13.8851427,2.86029882 15.5049461,3.58084363 16.9226776,4.86117889 C15.0276094,3.01052055 12.8160702,1.67163756 10.28806,0.844529916 C7.76004966,0.0174222734 5.13937595,-0.200911442 2.42603882,0.189528768 Z" id="Path-9" fill="url(#linearGradient-3)"></path>
                                <path d="M14.5953944,7.77372744 C15.6939119,9.02771093 16.0798551,10.4107481 15.7532238,11.9228388 C15.412935,13.4981549 14.4570142,14.5811006 12.8854613,15.1716759 L13.3150623,18.7745039 C14.5572839,18.4781712 15.5494814,18.0830662 16.2916547,17.589189 C17.0992695,17.0517637 17.7959495,16.3230096 18.3816946,15.4029266 C18.1974278,14.003274 17.7751756,12.6382756 17.1149382,11.3079313 C16.4547008,9.97758701 15.6148528,8.79951905 14.5953944,7.77372744 Z" id="Path-10" fill="url(#linearGradient-4)" opacity="0.5"></path>
                            </g>
                            <g id="Group-9" transform="translate(25.876922, 25.242606) rotate(-180.000000) translate(-25.876922, -25.242606) translate(15.876922, 20.242606)">
                                <g id="Group-12" transform="translate(10.463738, 4.527781) scale(-1, 1) rotate(-270.000000) translate(-10.463738, -4.527781) translate(5.963738, -4.972219)">
                                    <path d="M2.11906258,0.00172632044 C1.85181545,0.985037836 1.71819189,2.24520853 1.71819189,3.78223841 C1.71819189,6.08778323 4.45833221,12.6029327 4.5939158,14.9177996 C4.68430486,16.4610442 4.58419511,17.7205317 4.29358654,18.696262 C4.52172319,17.9752435 4.69555678,17.1943223 4.81508731,16.3534986 C4.93461784,15.5126749 5.01445381,14.5091869 5.05459522,13.3430345 L5.05459522,4.2031023 C5.08962561,3.1899998 5.19298958,2.3509328 5.36468714,1.68590129 C5.53638471,1.02086979 5.79459058,0.459478128 6.13930475,0.00172632044 L2.11906258,0.00172632044 Z" id="Path-11" fill="url(#linearGradient-5)" transform="translate(3.928748, 9.348994) rotate(-180.000000) translate(-3.928748, -9.348994) "></path>
                                    <polygon id="Rectangle-8" fill="url(#linearGradient-6)" opacity="0.699999988" transform="translate(1.401152, 9.246475) rotate(-90.000000) translate(-1.401152, -9.246475) " points="-0.518132482 7.84544359 3.32043597 7.84544359 3.32043597 10.647507 -0.518132482 10.647507"></polygon>
                                    <polygon id="Rectangle-8-Copy" fill="url(#linearGradient-7)" opacity="0.200000003" transform="translate(7.585070, 9.286429) rotate(-270.000000) translate(-7.585070, -9.286429) " points="5.66578558 8.38362658 9.50435402 8.38362658 9.50435402 10.1892314 5.66578558 10.1892314"></polygon>
                                </g>
                            </g>
                        </g>
                    </g>
                </g>
                <path d="M48.9723657,15 L58.7938681,15 C59.8841524,15 60.7662338,15.906645 60.7662338,17.0250483 L60.7662338,16.7695309 C60.7662338,17.8856829 59.8826377,18.7945792 58.7926667,18.7945792 L57.6913144,18.7945792 C56.6029036,18.7945792 55.7177473,19.7021078 55.7177473,20.8216011 L55.7177473,31.9729781 C55.7177473,33.0943678 54.8329636,34 53.7415275,34 L54.0507294,34 C52.9564358,34 52.0745096,33.0924714 52.0745096,31.9729781 L52.0745096,20.8216011 C52.0745096,19.7002113 51.1896146,18.7945792 50.0980412,18.7945792 L48.9764684,18.7945792 C47.8839121,18.7945792 47,17.8879342 47,16.7695309 L47,17.0250483 C47,15.9088963 47.8830582,15 48.9723657,15 Z M76.2857143,17.1111111 C76.2857143,18.2746731 75.4402246,19.2222222 74.3972603,19.2222222 L65.7845579,19.2222222 C64.7379516,19.2222222 63.8961039,18.2770456 63.8961039,17.1111111 C63.8961039,15.9475491 64.7415936,15 65.7845579,15 L74.3972603,15 C75.4438666,15 76.2857143,15.9451766 76.2857143,17.1111111 Z M63.8961039,24.8518519 C63.8961039,23.6882898 64.7466363,22.7407407 65.7958212,22.7407407 L72.3210619,22.7407407 C73.3670838,22.7407407 74.2207792,23.6859174 74.2207792,24.8518519 C74.2207792,26.0154139 73.3702468,26.962963 72.3210619,26.962963 L65.7958212,26.962963 C64.7497994,26.962963 63.8961039,26.0177863 63.8961039,24.8518519 Z M63.8961039,31.8888889 C63.8961039,30.7253269 64.7476398,29.7777778 65.7980626,29.7777778 L74.3837556,29.7777778 C75.4341262,29.7777778 76.2857143,30.7229544 76.2857143,31.8888889 C76.2857143,33.0524509 75.4341784,34 74.3837556,34 L65.7980626,34 C64.747692,34 63.8961039,33.0548234 63.8961039,31.8888889 Z M122.030878,15 L121.52476,15 C121.955953,15 122.459873,15.3282561 122.643382,15.7331805 L129.42439,30.6958801 C130.249717,32.5170158 129.3307,34 127.367982,34 L128.077585,34 C127.416741,34 126.667306,33.50667 126.393089,32.8981166 L122.844677,25.0233193 C122.204658,23.6029598 121.132124,23.5881025 120.447934,24.9875359 L116.572771,32.9137463 C116.280652,33.5112422 115.512798,34 114.860369,34 L115.516116,34 C113.548235,34 112.669887,32.5425007 113.548695,30.7445843 L120.891805,15.7216215 C121.087231,15.3218085 121.596589,15 122.030878,15 Z M87.4769959,18.7891738 L83.2794054,18.7891738 L83.2794054,31.9488001 C83.2794054,33.0685924 82.4167471,33.9729345 81.3526042,33.9729345 L81.6540739,33.9729345 C80.587145,33.9729345 79.7272727,33.0679018 79.7272727,31.9514873 L79.7272727,17.0214472 C79.7272727,15.9023402 80.5894018,15 81.6528919,15 L87.4769959,15 C90.4201915,15 92.8051948,17.5712251 92.8051948,20.7108262 C92.8051948,23.011396 91.536576,24.9871795 89.6843926,25.8803419 L91.932925,31.0571369 C92.6386346,32.6818917 91.8309903,34 90.1284735,34 L90.5854806,34 C89.9484022,34 89.2142852,33.5048751 88.9473625,32.8941076 L86.1068876,26.3945869 L86.1068876,23.4136383 C86.1068876,22.968735 86.4530361,22.6054131 86.8800321,22.6054131 L87.4769959,22.6054131 C88.4665185,22.6054131 89.2530622,21.7663818 89.2530622,20.7108262 C89.2530622,19.6552707 88.4665185,18.7891738 87.4769959,18.7891738 Z M104.78098,18.7891738 L100.362464,18.7891738 L100.362464,31.9488001 C100.362464,33.0685924 99.4544023,33.9729345 98.3342518,33.9729345 L98.6515884,33.9729345 C97.5285053,33.9729345 96.6233766,33.0679018 96.6233766,31.9514873 L96.6233766,17.0214472 C96.6233766,15.9023402 97.5308809,15 98.6503442,15 L104.78098,15 C107.879081,15 110.38961,17.5712251 110.38961,20.7108262 C110.38961,23.011396 109.054222,24.9871795 107.104555,25.8803419 L109.471432,31.0571369 C110.214284,32.6818917 109.364132,34 107.572009,34 L108.053069,34 C107.38246,34 106.609706,33.5048751 106.328734,32.8941076 L103.338761,26.3945869 L103.338761,23.4136383 C103.338761,22.968735 103.703128,22.6054131 104.152597,22.6054131 L104.78098,22.6054131 C105.822583,22.6054131 106.650523,21.7663818 106.650523,20.7108262 C106.650523,19.6552707 105.822583,18.7891738 104.78098,18.7891738 Z M147.832549,34 C147.407741,34 146.826656,33.7369066 146.534168,33.4118174 L138.413932,24.386489 C137.682455,23.5734811 137.089476,23.8215885 137.089476,24.9347863 L137.089476,31.9796217 C137.089476,33.0954458 136.231567,34 135.167075,34 L135.467856,34 C134.406143,34 133.545455,33.0963726 133.545455,31.9756692 L133.545455,15.8103282 C133.545455,15.3627963 133.891773,15 134.312971,15 L133.891773,15 C134.315661,15 134.901457,15.2626375 135.19296,15.5787819 L143.114332,24.1697634 C143.855303,24.9733699 144.455978,24.7189554 144.455978,23.6013653 L144.455978,17.0234564 C144.455978,15.9059323 145.313887,15 146.37838,15 L146.077598,15 C147.139312,15 148,15.9036274 148,17.0243308 L148,33.1896718 C148,33.6372037 147.65655,34 147.230817,34 L147.832549,34 Z" id="TERRAN-Copy-3" fill="#FF374B"></path>
            </g>
        </g>
    </g>
</svg>