<?xml version="1.0" encoding="UTF-8"?>
<svg width="1166px" height="1166px" viewBox="0 0 1166 1166" version="1.1" xmlns="http://www.w3.org/2000/svg" xmlns:xlink="http://www.w3.org/1999/xlink">
    <!-- Generator: Sketch 61 (89581) - https://sketch.com -->
    <title>Group 15</title>
    <desc>Created with Sketch.</desc>
    <g id="Page-1" stroke="none" stroke-width="1" fill="none" fill-rule="evenodd">
        <g id="Group-15" style="mix-blend-mode: overlay;" transform="translate(583.000000, 583.000000) rotate(-315.000000) translate(-583.000000, -583.000000) translate(1.000000, 1.000000)" fill-rule="nonzero">
            <polygon id="Rectangle" stroke="#979797" transform="translate(582.002306, 582.442052) rotate(-45.000000) translate(-582.002306, -582.442052) " points="293.895469 294.335215 870.109144 294.335215 870.109144 870.54889 293.895469 870.54889"></polygon>
            <polygon id="Rectangle" stroke="#979797" opacity="0.5" transform="translate(581.819839, 582.259585) rotate(-45.000000) translate(-581.819839, -582.259585) " points="242.647542 243.087288 920.992137 243.087288 920.992137 921.431883 242.647542 921.431883"></polygon>
            <polygon id="Rectangle" stroke="#979797" opacity="0.600000024" transform="translate(581.819839, 582.259585) rotate(-45.000000) translate(-581.819839, -582.259585) " points="273.123893 273.563639 890.515785 273.563639 890.515785 890.955531 273.123893 890.955531"></polygon>
            <path d="M294.457323,294.457323 L582.457323,294.457323 L582.457323,582.457323 L294.457323,582.457323 L294.457323,294.457323 Z" id="Rectangle-2" stroke="#979797" stroke-dasharray="2,2"></path>
            <path d="M582.249783,582.249783 L870.249783,582.249783 L870.249783,870.249783 L582.249783,870.249783 L582.249783,582.249783 Z" id="Rectangle-2-Copy" stroke="#979797" stroke-dasharray="2,2"></path>
            <line x1="869.955621" y1="294.056192" x2="294.013215" y2="869.998598" id="Path-2" stroke="#979797" stroke-dasharray="2,2"></line>
            <line x1="294.023803" y1="294.012019" x2="869.966203" y2="869.954419" id="Path-4" stroke="#979797" stroke-dasharray="2,2"></line>
            <path d="M206.256518,550.733265 L957.714025,550.733265 L957.714025,614.11677 L206.256518,614.11677 L206.256518,550.733265 Z" id="Rectangle-3" stroke="#979797" stroke-dasharray="2,2" transform="translate(581.985271, 582.425017) rotate(-315.000000) translate(-581.985271, -582.425017) "></path>
            <path d="M206.827793,552.439165 L953.755228,552.439165 L953.755228,615.82267 L206.827793,615.82267 L206.827793,552.439165 Z" id="Rectangle-3" stroke="#979797" stroke-dasharray="2,2" transform="translate(580.291511, 584.130918) rotate(-225.000000) translate(-580.291511, -584.130918) "></path>
            <circle id="Oval" stroke="#FFFFFF" cx="582.707107" cy="582.707107" r="288"></circle>
            <path d="M582.707107,890.5 C753.086952,890.5 891.207107,752.379845 891.207107,582 C891.207107,411.620155 753.086952,273.5 582.707107,273.5 C412.327261,273.5 274.207107,411.620155 274.207107,582 C274.207107,752.379845 412.327261,890.5 582.707107,890.5 Z" id="Oval" stroke="#FFFFFF" opacity="0.200000003" stroke-dasharray="2,2"></path>
            <path d="M582.707107,998.707107 C812.457563,998.707107 998.707107,812.457563 998.707107,582.707107 C998.707107,352.956651 812.457563,166.707107 582.707107,166.707107 C352.956651,166.707107 166.707107,352.956651 166.707107,582.707107 C166.707107,812.457563 352.956651,998.707107 582.707107,998.707107 Z" id="Oval" stroke="#FFFFFF" opacity="0.400000006" stroke-dasharray="2,2"></path>
            <circle id="Oval" stroke="#FFFFFF" opacity="0.200000003" cx="582" cy="582" r="582"></circle>
            <path d="M582.707107,915.5 C766.894071,915.5 916.207107,766.186964 916.207107,582 C916.207107,397.813036 766.894071,248.5 582.707107,248.5 C398.520143,248.5 249.207107,397.813036 249.207107,582 C249.207107,766.186964 398.520143,915.5 582.707107,915.5 Z" id="Oval" stroke="#FFFFFF" opacity="0.5" stroke-dasharray="2,2"></path>
            <circle id="Oval" stroke="#FFFFFF" opacity="0.200000003" cx="582" cy="582" r="352"></circle>
            <circle id="Oval" stroke="#FFFFFF" cx="582.707107" cy="582" r="224.5"></circle>
            <path d="M582.707107,790.5 C697.858477,790.5 791.207107,697.15137 791.207107,582 C791.207107,466.84863 697.858477,373.5 582.707107,373.5 C467.555736,373.5 374.207107,466.84863 374.207107,582 C374.207107,697.15137 467.555736,790.5 582.707107,790.5 Z" id="Oval" stroke="#FFFFFF" opacity="0.5" stroke-dasharray="2,2"></path>
            <circle id="Oval" stroke="#FFFFFF" opacity="0.300000012" cx="582.707107" cy="582" r="189.5"></circle>
            <circle id="Oval" stroke="#FFFFFF" opacity="0.200000003" cx="582.707107" cy="582.707107" r="172"></circle>
            <path d="M582.353553,807.410949 C597.833391,791.935279 608.671612,781.100819 614.868218,774.907568 C642.858442,746.932503 656.853553,722.634701 656.853553,702.014162 C656.853553,660.811945 623.498767,627.410949 582.353553,627.410949 C541.20834,627.410949 507.853553,660.811945 507.853553,702.014162 C507.853553,722.619085 521.827476,746.895703 549.775321,774.844017 C555.981355,781.050156 566.840766,791.905799 582.353553,807.410949 Z" id="Oval-2" stroke="#FFFFFF" transform="translate(582.353553, 717.410949) rotate(-180.000000) translate(-582.353553, -717.410949) "></path>
            <g id="Group-6" transform="translate(529.707107, 657.300036)" stroke="#FFFFFF">
                <path d="M52.8823191,128 C63.8703687,116.995079 71.5636613,109.290574 75.9621968,104.886485 C95.8304911,84.9931052 105.764638,67.7146682 105.764638,53.0511741 C105.764638,23.7518197 82.0884175,0 52.8823191,0 C23.6762207,0 6.06724547e-13,23.7518197 6.06724547e-13,53.0511741 C6.06724547e-13,67.7035634 9.91910642,84.9669365 29.7573192,104.841293 C34.1625471,109.254547 41.8708803,116.974116 52.8823191,128 Z" id="Oval-2" opacity="0.5" stroke-dasharray="2,2" transform="translate(52.882319, 64.000000) rotate(-180.000000) translate(-52.882319, -64.000000) "></path>
                <path d="M52.8823191,103.384615 C59.6441958,96.6123564 64.3785297,91.8711226 67.0853208,89.1609139 C79.3119634,76.9188339 85.4252847,66.2859496 85.4252847,57.262261 C85.4252847,39.231889 70.8553027,24.6153846 52.8823191,24.6153846 C34.9093355,24.6153846 20.3393535,39.231889 20.3393535,57.262261 C20.3393535,66.2791159 26.443419,76.9027301 38.65155,89.1331036 C41.3624594,91.8489521 46.1060491,96.5994561 52.8823191,103.384615 Z" id="Oval-2" opacity="0.200000003" transform="translate(52.882319, 64.000000) rotate(-180.000000) translate(-52.882319, -64.000000) "></path>
            </g>
            <g id="Group-6" transform="translate(582.000000, 444.821284) rotate(-180.000000) translate(-582.000000, -444.821284) translate(529.000000, 380.821284)" stroke="#FFFFFF">
                <path d="M52.8823191,128 C63.8703687,116.995079 71.5636613,109.290574 75.9621968,104.886485 C95.8304911,84.9931052 105.764638,67.7146682 105.764638,53.0511741 C105.764638,23.7518197 82.0884175,0 52.8823191,0 C23.6762207,0 6.06724547e-13,23.7518197 6.06724547e-13,53.0511741 C6.06724547e-13,67.7035634 9.91910642,84.9669365 29.7573192,104.841293 C34.1625471,109.254547 41.8708803,116.974116 52.8823191,128 Z" id="Oval-2" opacity="0.5" stroke-dasharray="2,2" transform="translate(52.882319, 64.000000) rotate(-180.000000) translate(-52.882319, -64.000000) "></path>
                <path d="M52.8823191,103.384615 C59.6441958,96.6123564 64.3785297,91.8711226 67.0853208,89.1609139 C79.3119634,76.9188339 85.4252847,66.2859496 85.4252847,57.262261 C85.4252847,39.231889 70.8553027,24.6153846 52.8823191,24.6153846 C34.9093355,24.6153846 20.3393535,39.231889 20.3393535,57.262261 C20.3393535,66.2791159 26.443419,76.9027301 38.65155,89.1331036 C41.3624594,91.8489521 46.1060491,96.5994561 52.8823191,103.384615 Z" id="Oval-2" opacity="0.200000003" transform="translate(52.882319, 64.000000) rotate(-180.000000) translate(-52.882319, -64.000000) "></path>
            </g>
            <path d="M582.376675,870.47592 C609.926229,842.947306 629.278531,823.654948 640.433582,812.598846 C693.713563,759.791476 720.353553,714.06308 720.353553,675.413658 C720.353553,599.232749 658.568849,537.47592 582.353553,537.47592 C506.138258,537.47592 444.353553,599.232749 444.353553,675.413658 C444.353553,714.059008 470.987931,759.78184 524.256685,812.582155 C535.414303,823.641654 554.787633,842.939575 582.376675,870.47592 Z" id="Oval-2" stroke="#FFFFFF" transform="translate(582.353553, 703.975920) rotate(-180.000000) translate(-582.353553, -703.975920) "></path>
            <path d="M583.06066,538.003265 C598.540497,522.527595 609.378719,511.693135 615.575325,505.499885 C643.565548,477.524819 657.56066,453.227017 657.56066,432.606479 C657.56066,391.404261 624.205874,358.003265 583.06066,358.003265 C541.915446,358.003265 508.56066,391.404261 508.56066,432.606479 C508.56066,453.211401 522.534583,477.488019 550.482428,505.436334 C556.688462,511.642472 567.547873,522.498116 583.06066,538.003265 Z" id="Oval-2-Copy" stroke="#FFFFFF" transform="translate(583.060660, 448.003265) rotate(-360.000000) translate(-583.060660, -448.003265) "></path>
            <path d="M582.376675,627.231187 C609.926229,599.702573 629.278531,580.410215 640.433582,569.354113 C693.713563,516.546743 720.353553,470.818347 720.353553,432.168925 C720.353553,355.988016 658.568849,294.231187 582.353553,294.231187 C506.138258,294.231187 444.353553,355.988016 444.353553,432.168925 C444.353553,470.814275 470.987931,516.537108 524.256685,569.337422 C535.414303,580.396921 554.787633,599.694843 582.376675,627.231187 Z" id="Oval-2-Copy-2" stroke="#FFFFFF" transform="translate(582.353553, 460.731187) rotate(-360.000000) translate(-582.353553, -460.731187) "></path>
        </g>
    </g>
</svg>