<?xml version="1.0" standalone="no"?>
<!DOCTYPE svg PUBLIC "-//W3C//DTD SVG 20010904//EN"
 "http://www.w3.org/TR/2001/REC-SVG-20010904/DTD/svg10.dtd">
<svg version="1.0" xmlns="http://www.w3.org/2000/svg"
 width="539.000000pt" height="539.000000pt" viewBox="0 0 539.000000 539.000000"
 preserveAspectRatio="xMidYMid meet">
<metadata>
Created by potrace 1.11, written by Peter Selinger 2001-2013
</metadata>
<g transform="translate(0.000000,539.000000) scale(0.100000,-0.100000)"
fill="#000000" stroke="none">
<path d="M2587 5384 c-1 -1 -42 -5 -91 -8 -144 -11 -330 -41 -441 -71 -229
-62 -322 -97 -525 -193 -517 -246 -968 -691 -1228 -1211 -37 -75 -75 -154 -84
-176 -85 -207 -145 -425 -180 -650 -17 -111 -22 -187 -22 -365 -1 -124 3 -259
7 -300 45 -422 185 -821 410 -1171 169 -264 352 -464 628 -683 107 -86 323
-218 469 -288 216 -103 532 -201 720 -224 30 -3 58 -8 61 -10 3 -2 42 -6 85
-9 43 -4 90 -8 104 -11 29 -5 304 -5 370 0 74 6 173 16 200 21 47 8 145 25
169 30 240 47 541 161 795 304 239 133 560 406 742 631 231 285 409 623 503
956 33 118 69 282 78 354 3 25 9 65 14 90 11 60 10 560 -2 630 -5 30 -11 73
-14 95 -19 140 -93 427 -134 520 -5 11 -26 61 -46 110 -143 349 -386 689 -679
949 -38 33 -74 66 -80 71 -33 29 -142 109 -221 162 -373 250 -805 400 -1260
439 -64 6 -343 12 -348 8z m308 -599 c50 -4 92 -9 94 -11 3 -2 -5 -12 -18 -20
-301 -211 -447 -476 -525 -954 -8 -52 -18 -126 -21 -165 -3 -38 -8 -92 -12
-120 -3 -27 -7 -151 -9 -275 -1 -124 -3 -230 -3 -236 -1 -8 -53 -12 -171 -13
-184 -2 -333 -8 -420 -17 -30 -3 -75 -8 -100 -10 -213 -18 -521 -103 -677
-186 -144 -77 -282 -198 -368 -323 -21 -30 -40 -53 -42 -51 -10 10 -18 151
-17 311 1 162 8 233 39 400 39 208 164 515 285 700 181 277 421 512 690 675
282 171 619 277 940 297 52 3 96 6 97 7 4 4 144 -2 238 -9z m914 -410 c52 -8
143 -37 191 -61 88 -44 215 -148 203 -167 -3 -5 -2 -7 4 -4 5 3 20 -8 33 -25
12 -17 16 -27 9 -23 -8 5 -2 -3 14 -18 28 -27 36 -43 15 -32 -7 4 -2 -3 12
-15 14 -12 19 -19 13 -15 -7 3 -13 1 -13 -4 0 -6 5 -11 12 -11 6 0 9 -3 5 -6
-3 -4 4 -15 16 -26 12 -11 15 -16 7 -12 -13 7 -13 6 0 -10 15 -19 16 -22 18
-69 1 -17 6 -26 12 -22 7 4 9 -3 6 -19 -3 -14 -1 -28 4 -31 5 -3 7 -19 5 -35
-2 -17 1 -30 7 -30 7 0 6 -5 -2 -15 -10 -12 -10 -15 1 -16 10 0 11 -2 2 -6 -7
-2 -13 -9 -13 -14 0 -6 4 -8 9 -4 6 3 8 -4 4 -17 -3 -13 -5 -36 -5 -51 1 -17
-3 -25 -9 -21 -7 4 -7 -1 0 -15 8 -15 9 -21 1 -21 -6 0 -8 -5 -5 -10 4 -6 2
-16 -3 -23 -5 -7 -8 -20 -7 -29 2 -10 -1 -18 -6 -18 -6 0 -8 -4 -4 -9 3 -5 1
-12 -5 -16 -6 -4 -8 -11 -5 -16 4 -5 1 -9 -6 -9 -7 0 -10 -3 -6 -6 18 -18 -90
-177 -167 -246 -77 -69 -234 -135 -381 -158 -123 -20 -214 -24 -495 -25 l-285
0 1 270 c1 426 18 563 91 740 31 75 70 131 131 190 92 91 258 170 380 182 31
3 58 6 60 7 4 4 103 -2 151 -9z m969 -1392 c26 -256 21 -469 -19 -673 -152
-788 -762 -1440 -1534 -1640 -60 -16 -130 -31 -155 -35 -24 -4 -47 -8 -50 -10
-30 -17 -436 -27 -555 -13 -33 4 -62 7 -64 8 -4 0 21 19 89 67 59 43 173 160
220 229 114 165 209 439 244 704 3 25 8 63 11 85 15 114 28 354 29 558 l1 137
165 1 c201 0 325 4 405 13 33 4 83 9 110 11 28 2 50 5 50 5 0 1 9 3 20 4 82
11 122 17 135 21 8 2 27 6 41 9 60 10 229 60 304 89 224 88 380 207 506 386
23 33 43 61 44 61 0 0 2 -8 3 -17z m-2377 -645 c2 -194 -2 -501 -6 -553 -23
-277 -100 -487 -215 -589 -151 -134 -332 -196 -528 -183 -310 21 -564 244
-626 549 -36 174 -5 349 88 503 111 183 275 275 571 318 56 8 208 14 403 16
l312 2 1 -63z"/>
</g>
</svg>
